# xmcd CD database file
#
# Track frame offsets:
#	150
#	15407
#	35532
#	55942
#	72045
#	85952
#	101795
#	120942
#	138600
#	155627
#	181930
#	194335
#	203450
#	216587
#	237050
#	251750
#	270310
#
# Disc length: 3758 seconds
#
# Revision: 0
# Processed by: cddbd v1.4PL0 Copyright (c) Steve Scherf et al.
# Submitted via: CDex 1.40Release
#
DISCID=ea0eac11
DTITLE=KENNY NEAL - Walking On Fire
DYEAR=1994
DGENRE=Blues
TTITLE0=LOOK BUT DONT'T TOUCH
TTITLE1=THE TRUTH HURTS
TTITLE2=I PUT MY TRUST IN YOU
TTITLE3=BLUES STEW
TTITLE4=MORNIG AFTER
TTITLE5=I..O.U
TTITLE6=MY ONLY GOOD THING
TTITLE7=I BEEN MISSING YOU, TOO
TTITLE8=CAUGHT IN THE JAWS OF A VISE
TTITLE9=THINGS GOT TO GET BETTER
TTITLE10=WALKING ON FIRE
TTITLE11=BAD LUCK CARD
TTITLE12=LORETTA
TTITLE13=BABY BEE
TTITLE14=IS IT ALL RIGHT?
TTITLE15=COST OF LIVING
TTITLE16=EARLY ONE MORNING
EXTD=YEAR: 1994 ID3G: 0
EXTT0=
EXTT1=
EXTT2=
EXTT3=
EXTT4=
EXTT5=
EXTT6=
EXTT7=
EXTT8=
EXTT9=
EXTT10=
EXTT11=
EXTT12=
EXTT13=
EXTT14=
EXTT15=
EXTT16=
PLAYORDER=
